<svg width="22" height="22" viewBox="0 0 22 22" fill="none" xmlns="http://www.w3.org/2000/svg">
<g clip-path="url(#clip0_70679_2)">
<circle cx="11" cy="11" r="11" fill="black"/>
<path d="M7.73828 3.77051H11.4648C12.4727 3.77051 13.2461 3.84961 13.7852 4.00781C14.3301 4.16602 14.7373 4.39453 15.0068 4.69336C15.2822 4.99219 15.4668 5.35547 15.5605 5.7832C15.6602 6.20508 15.71 6.86133 15.71 7.75195V8.99121C15.71 9.89941 15.6162 10.5615 15.4287 10.9775C15.2412 11.3936 14.8955 11.7129 14.3916 11.9355C13.8936 12.1582 13.2402 12.2695 12.4316 12.2695H11.4385V18H7.73828V3.77051ZM11.4385 6.20508V9.82617C11.5439 9.83203 11.6348 9.83496 11.7109 9.83496C12.0508 9.83496 12.2852 9.75293 12.4141 9.58887C12.5488 9.41895 12.6162 9.07031 12.6162 8.54297V7.37402C12.6162 6.8877 12.54 6.57129 12.3877 6.4248C12.2354 6.27832 11.9189 6.20508 11.4385 6.20508Z" fill="white"/>
</g>
<defs>
<clipPath id="clip0_70679_2">
<rect width="22" height="22" fill="white"/>
</clipPath>
</defs>
</svg>
